<svg xmlns="http://www.w3.org/2000/svg">
<defs>
<font
       horiz-adv-x="1000"
       id="font423"
       inkscape:label="grotesque_pico"
       horiz-origin-x="0"
       horiz-origin-y="0"
       vert-origin-x="512"
       vert-origin-y="768"
       vert-adv-y="1024"><font-face
         units-per-em="1000"
         ascent="750"
         cap-height="600"
         x-height="400"
         descent="200"
         id="font-face425"
         font-family="SVGFont 1" /><missing-glyph
         d="M0,0h1000v1000h-1000z"
         id="missing-glyph427" /><glyph
         glyph-name=""
         unicode="/"
         id="glyph1731"
         d="M 960,936 H 864 L 64,136 V 40 h 96 l 800,800 z" /><glyph
         glyph-name=""
         unicode="0"
         id="glyph2631"
         d="m 448,936 c 0,0 -384,-3.8e-4 -384,-384 V 424 c 0,0 3.84e-4,-384 384,-384 h 128 c 0,0 384,3.8e-4 384,384 v 128 c 0,0 -3.8e-4,384 -384,384 z m 0,-128 H 576 C 831.99974,808 832,552 832,552 V 424 C 832,168.00026 576,168 576,168 H 448 C 192.00026,168 192,424 192,424 v 128 c 0,255.99974 256,256 256,256 z" /><glyph
         glyph-name=""
         unicode="1"
         id="glyph2633"
         d="M 64,936 H 576 V 168 H 960 V 40 H 64 V 168 H 448 V 808 H 64 Z" /><glyph
         glyph-name=""
         unicode="2"
         id="glyph2635"
         d="m 64,808 h 640 c 0,0 128,0 128,-128 C 832,552 704,552 704,552 H 320 c 0,0 -256,0 -256,-256 V 40 H 960 V 168 H 192 v 128 c 0,0 0,128 128,128 h 384 c 0,0 256,0 256,256 0,256 -256,256 -256,256 H 64 Z" /><glyph
         glyph-name=""
         unicode="3"
         id="glyph2637"
         d="M 64,936 V 808 h 640 c 0,0 128,0 128,-128 C 832,552 704,552 704,552 H 448 V 424 h 256 c 0,0 128,0 128,-128 C 832,168 704,168 704,168 H 64 V 40 h 640 c 0,0 256,0 256,256 0,128 -35.88236,156.19678 -78.90625,192 C 924.11764,523.80322 960,552 960,680 960,936 704,936 704,936 Z" /><glyph
         glyph-name=""
         unicode="4"
         id="glyph2639"
         d="M 544,936 64,456 V 296 H 576 V 40 H 704 V 296 H 960 V 424 H 704 V 936 Z M 576,808 V 424 H 192 Z" /><glyph
         glyph-name=""
         unicode="5"
         id="glyph2641"
         d="m 64,168 h 640 c 0,0 128,0 128,128 0,128 -128,128 -128,128 H 64 c 0,170.66667 0,341.33333 0,512 H 832 V 808 H 192 c 0,0 0,-161.51185 0,-256 h 512 c 0,0 256,0 256,-256 C 960,40 704,40 704,40 H 64 Z" /><glyph
         glyph-name=""
         unicode="6"
         id="glyph2643"
         d="m 320,936 c 0,0 -256,0 -256,-256 -0.631003,-134.73747 0,-259.21595 0,-384 0,0 0,-256 256,-256 149.33333,0 234.66667,0 384,0 0,0 256,4.8e-4 256,242 0,269.99946 -256,270 -256,270 H 192 v 128 c 0,131.12241 128,128 128,128 H 832 V 936 Z M 192,424 h 512 c 0,0 128,0 128,-128 0,-128 -128,-128 -128,-128 -128,0 -256,0 -384,0 0,0 -128,1.3e-4 -128,128 z" /><glyph
         glyph-name=""
         unicode="7"
         id="glyph2645"
         d="M 64,808 V 936 H 960 V 776 L 160,40 H 64 v 96 l 736,672 z" /><glyph
         glyph-name=""
         unicode="8"
         id="glyph2647"
         d="M 320,936 C 320,936 64,936 64,680 64,552 99.882493,523.80318 142.90625,488 99.882493,452.19682 64,424 64,296 64,40 320,40 320,40 c 128,0 256,0 384,0 0,0 256,0 256,256 0,128 -35.8824,156.19682 -78.90625,192 C 924.1176,523.80318 960,552 960,680 c 0,256 -256,256 -256,256 -128,0 -256,0 -384,0 z m 0,-128 c 149.33333,0 234.66667,0 384,0 0,0 128,0 128,-128 0,-128 -128,-128 -128,-128 -149.33333,0 -234.66667,0 -384,0 0,0 -128,0 -128,128 0,128 128,128 128,128 z m 0,-384 c 149.33333,0 234.66667,0 384,0 0,0 128,0 128,-128 0,-128 -128,-128 -128,-128 -149.33333,0 -234.66667,0 -384,0 0,0 -128,0 -128,128 0,128 128,128 128,128 z" /><glyph
         glyph-name=""
         unicode="9"
         id="glyph2649"
         d="m 704,40 c 0,0 256,0 256,256 1.15321,143.1354 0,261.62798 0,384 0,0 0,256 -256,256 -138.66667,0 -245.33333,0 -384,0 0,0 -256,0 -256,-256 C 64,424 320,424 320,424 H 832 V 296 C 832,168 704,168 704,168 H 192 V 40 Z M 832,552 H 320 c 0,0 -128,0 -128,128 0,128 128,128 128,128 137.98514,5.97343 246.09788,0 384,0 0,0 128,0 128,-128 z" /><glyph
         glyph-name=""
         unicode=":"
         id="glyph2651"
         d="M 448,808 V 680 h 128 v 128 z m 0,-512 V 168 h 128 v 128 z" /><glyph
         glyph-name=""
         unicode=";"
         id="glyph2653"
         d="M 448,808 V 680 h 128 v 128 z m 0,-512 V 40 l 128,128 v 128 z" /><glyph
         glyph-name=""
         unicode="&lt;"
         id="glyph2655"
         d="M 864,936 64,552 V 424 L 864,40 h 96 v 96 L 192,488 960,840 v 96 z" /><glyph
         glyph-name=""
         unicode="="
         id="glyph2657"
         d="M 64,680 V 552 H 960 V 680 Z M 64,424 V 296 h 896 v 128 z" /><glyph
         glyph-name=""
         unicode="&gt;"
         id="glyph2659"
         d="M 160,936 960,552 V 424 L 160,40 H 64 v 96 L 832,488 64,840 v 96 z" /><glyph
         glyph-name=""
         unicode="?"
         id="glyph2661"
         d="M 64,936 V 808 h 640 c 0,0 128,0 128,-128 C 832,552 704,552 704,552 H 448 V 296 h 128 v 128 h 128 c 0,0 256,0 256,256 0,256 -256,256 -256,256 z M 448,168 V 40 h 128 v 128 z" /><glyph
         glyph-name=""
         unicode="@"
         id="glyph2663" /><glyph
         glyph-name=""
         unicode="A"
         id="glyph429"
         d="M 448,936 C 64.000384,936 64,552 64,552 V 40 H 192 V 296 H 832 V 40 h 128 v 512 c 0,383.99962 -384,384 -384,384 z m 0,-128 h 128 c 0,0 256,-2.6e-4 256,-256 V 424 H 192 v 128 c 0,0 2.6e-4,256 256,256 z" /><glyph
         glyph-name=""
         unicode="B"
         id="glyph1118"
         d="M 64,936 V 40 h 640 c 0,0 256,0 256,256 0,192 -128,192 -128,192 0,0 128,0 128,192 0,256 -256,256 -256,256 z M 704,808 c 30.62494,0.13672 128,0 128,-128 C 832,552 704,552 704,552 H 192 v 256 c 172.14437,4.04211 341.53017,-1.00986 512,0 z M 192,424 h 512 c 0,0 128,0 128,-128 C 832,168 704,168 704,168 H 192 Z" /><glyph
         glyph-name=""
         unicode="C"
         id="glyph1323"
         d="M 960,936 H 448 C 448,936 64,936 64,552 64,534.12564 64,443.47709 64,424 64,40 448,40 448,40 H 960 V 168 H 448 c 0,0 -256,0 -256,256 0,12.72943 0,116.23742 0,128 0,256 256,256 256,256 h 512 z" /><glyph
         glyph-name=""
         unicode="D"
         id="glyph1330"
         d="M 64,936 V 40 h 512 c 0,0 384,0 384,384 0,27.65869 0,103.44113 0,128 0,384 -384,384 -384,384 z M 192,808 h 384 c 0,0 256,0 256,-256 0,-18.27859 0,-107.30305 0,-128 C 832,168 576,168 576,168 H 192 Z" /><glyph
         glyph-name=""
         unicode="E"
         id="glyph1340"
         d="M 960,936 H 64 V 40 H 960 V 168 H 192 V 424 H 576 V 552 H 192 v 256 h 768 z" /><glyph
         glyph-name=""
         unicode="F"
         id="glyph1347"
         d="M 64,40 V 936 H 960 V 808 H 192 V 552 H 576 V 424 H 192 V 40 Z" /><glyph
         glyph-name=""
         unicode="G"
         id="glyph1401"
         d="M 960,936 H 448 C 448,936 64,936 64,552 64,535.11846 64,442.30146 64,424 64,40 448,40 448,40 H 960 V 424 H 832 V 168 H 448 c 0,0 -256,0 -256,256 0,21.32064 0,109.30502 0,128 0,256 256,256 256,256 h 512 z" /><glyph
         glyph-name=""
         unicode="H"
         id="glyph1408"
         d="M 192,936 H 64 V 40 H 192 V 424 H 832 V 40 H 960 V 936 H 832 V 552 H 192 Z" /><glyph
         glyph-name=""
         unicode="I"
         id="glyph1412"
         d="M 64,936 H 960 V 808 H 576 V 168 H 960 V 40 H 64 V 168 H 448 V 808 H 64 Z" /><glyph
         glyph-name=""
         unicode="J"
         id="glyph1423"
         d="M 576,936 H 960 V 424 c 0,0 0,-384 -384,-384 -27.78491,0 -96.06089,0 -128,0 C 64,40 64,424 64,424 h 128 c 0,0 0,-256 256,-256 30.3447,0 102.79091,0 128,0 256,0 256,256 256,256 V 808 H 576 Z" /><glyph
         glyph-name=""
         unicode="K"
         id="glyph1430"
         d="M 832,936 448,552 H 192 V 936 H 64 V 40 H 192 V 424 H 448 L 832,40 H 960 V 72 L 544,488 960,904 v 32 z" /><glyph
         glyph-name=""
         unicode="L"
         id="glyph1437"
         d="M 64,936 H 192 V 168 H 960 V 40 H 64 Z" /><glyph
         glyph-name=""
         unicode="M"
         id="glyph1444"
         d="M 192,40 H 64 V 936 H 192 L 512,584 832,936 H 960 V 40 H 832 V 776 L 512,424 192,776 Z" /><glyph
         glyph-name=""
         unicode="N"
         id="glyph1451"
         d="M 192,40 H 64 V 936 H 192 L 832,232 V 936 H 960 V 40 H 832 L 192,744 Z" /><glyph
         glyph-name=""
         unicode="O"
         id="glyph1540"
         d="m 448,904 c 0,0 -384,-3.8e-4 -384,-384 V 392 C 64,392 64.00038,8 448,8 h 128 c 0,0 384,3.8e-4 384,384 v 128 c 0,0 -4e-4,384 -384,384 z m 0,-128 H 576 C 831.9997,776 832,520 832,520 V 392 C 832,136.00026 576,136 576,136 H 448 C 192.00026,136 192,392 192,392 v 128 c 0,255.99974 256,256 256,256 z" /><glyph
         glyph-name=""
         unicode="P"
         id="glyph1550"
         d="M 64,936 V 40 h 128 v 384 h 512 c 0,0 256,0 256,256 0,256 -256,256 -256,256 z M 192,808 h 512 c 0,0 128,0 128,-128 C 832,552 704,552 704,552 H 192 Z" /><glyph
         glyph-name=""
         unicode="Q"
         id="glyph1562"
         d="m 448,936 c 0,0 -384,-7.6e-4 -384,-384 V 424 c 0,0 7.64e-4,-384 384,-384 h 128 c 0,0 118.08524,-3.28764 224,64 l 64,-64 h 96 v 90.5098 L 896,200 c 38.59732,54.71795 64,123.8783 64,224 v 128 c 0,0 -7.6e-4,384 -384,384 z m 0,-128 H 576 C 831.99948,808 832,552 832,552 V 424 c 0,-56.05983 -12.82414,-93.80428 -32,-128 L 672,424 H 576 V 328 L 704,200 C 638.82671,166.17206 576,168 576,168 H 448 C 192.00052,168 192,424 192,424 v 128 c 0,255.99948 256,256 256,256 z" /><glyph
         glyph-name=""
         unicode="R"
         id="glyph1669"
         d="M 64,936 V 40 H 192 V 424 H 448 L 832,40 H 960 V 72 L 608,424 h 96 c 0,0 256,2.6e-4 256,256 0,255.99974 -256,256 -256,256 z M 192,808 h 512 c 0,0 128,0 128,-128 C 832,552 704,552 704,552 H 192 Z" /><glyph
         glyph-name=""
         unicode="S"
         id="glyph1679"
         d="M 832,808 V 936 H 320 C 320,936 64,936 64,680 64,426 320,424 320,424 h 384 c 0,0 128,0 128,-128 C 832,168 704,168 704,168 H 192 V 40 h 512 c 0,0 256,0 256,256 0,256 -256,256 -256,256 H 320 c 0,0 -128,0 -128,128 0,128 128,128 128,128 z" /><glyph
         glyph-name=""
         unicode="T"
         id="glyph1686"
         d="M 64,936 H 960 V 808 H 576 V 40 H 448 V 808 H 64 Z" /><glyph
         glyph-name=""
         unicode="U"
         id="glyph1693"
         d="M 64,936 V 424 c 0,0 0,-384 384,-384 14.83041,0 112.10115,0 128,0 384,0 384,384 384,384 V 936 H 832 V 424 c 0,0 0,-256 -256,-256 -29.04738,0 -103.15639,0 -128,0 -256,0 -256,256 -256,256 v 512 z" /><glyph
         glyph-name=""
         unicode="V"
         id="glyph1700"
         d="M 64,936 448,40 H 576 L 960,936 H 832 L 512,200 192,936 Z" /><glyph
         glyph-name=""
         unicode="W"
         id="glyph1709"
         d="M 192,936 H 64 V 40 H 192 L 512,392 832,40 H 960 V 936 H 832 V 200 L 512,552 192,200 Z" /><glyph
         glyph-name=""
         unicode="X"
         id="glyph1736"
         d="M 64,936 V 840 L 416,488 64,136 V 40 h 96 L 512,392 864,40 h 96 v 96 L 608,488 960,840 v 96 H 864 L 512,584 160,936 Z" /><glyph
         glyph-name=""
         unicode="Y"
         id="glyph1743"
         d="M 64,936 V 904 L 448,520 V 40 h 128 v 480 l 384,384 v 32 H 832 L 512,616 192,936 Z" /><glyph
         glyph-name=""
         unicode="Z"
         id="glyph1750"
         d="M 64,808 V 936 H 960 V 808 L 256,168 H 960 V 40 H 64 v 128 l 704,640 z" /><glyph
         glyph-name=""
         unicode="["
         id="glyph2516"
         d="M 448,936 V 40 H 704 V 168 H 576 v 640 h 128 v 128 z" /><glyph
         glyph-name=""
         unicode="\"
         id="glyph2523"
         d="M 160,936 H 64 V 840 L 864,40 h 96 v 96 z" /><glyph
         glyph-name=""
         unicode="]"
         id="glyph2530"
         d="M 576,936 V 40 H 320 V 168 H 448 V 808 H 320 v 128 z" /><glyph
         glyph-name=""
         unicode="^"
         id="glyph2557"
         d="M 576,936 H 448 L 192,680 H 384 L 512,808 640,680 h 192 z" /><glyph
         glyph-name=""
         unicode="_"
         id="glyph2559"
         d="M 64,168 V 40 h 896 v 128 z" /><glyph
         glyph-name=""
         unicode="`"
         id="glyph2561"
         d="M 320,936 V 840 L 480,680 h 96 v 96 L 416,936 Z" /><glyph
         glyph-name=""
         unicode="a"
         id="glyph2563"
         d="M 192,680 V 552 H 576 C 703.99987,552 704,424 704,424 H 384 c 0,0 -192,0 -192,-192 C 192,40 384,40 384,40 H 832 V 424 C 832,680 576,680 576,680 Z M 384,296 H 704 V 168 H 384 c 0,0 -64,0 -64,64 0,64 64,64 64,64 z" /><glyph
         glyph-name=""
         unicode="b"
         id="glyph2565"
         d="M 192,936 V 40 h 320 c 0,0 320,3.2e-4 320,320 0,319.99968 -320,320 -320,320 H 320 V 936 Z M 512,552 c 0,0 192,0 192,-192 C 704,168 512,168 512,168 H 320 v 384 c 70.65716,-1.01918 133.30192,1.1633 192,0 z" /><glyph
         glyph-name=""
         unicode="c"
         id="glyph2567"
         d="M 832,680 H 512 c 0,0 -320,0 -320,-320 C 192,40 512,40 512,40 H 832 V 168 H 512 c 0,0 -192,0 -192,192 0,192 192,192 192,192 h 320 z" /><glyph
         glyph-name=""
         unicode="d"
         id="glyph2569"
         d="M 704,936 V 680 H 512 c 0,0 -320,0 -320,-320 C 192,40 512,40 512,40 H 832 V 936 Z M 512,552 H 704 V 168 H 512 c 0,0 -192,0 -192,192 0,192 192,192 192,192 z" /><glyph
         glyph-name=""
         unicode="e"
         id="glyph2571"
         d="M 512,680 C 303.3621,680 192,552 192,424 c 0,-62.12444 0,-128 0,-128 0,0 0,-256 256,-256 H 704 V 168 H 448 c 0,0 -128,0 -128,128 h 512 c 0,0 0,64 0,128 0,128 -122.52145,256 -320,256 z m 0,-128 C 704,552 704,424 704,424 H 320 c 0,0 0,128 192,128 z" /><glyph
         glyph-name=""
         unicode="f"
         id="glyph2573"
         d="m 832,680 c 0,0 0,256 -256,256 C 320,936 320,680 320,680 V 552 H 192 V 424 H 320 V 40 H 448 V 424 H 576 V 552 H 448 v 128 c 0,0 0,128 128,128 128,0 128,-128 128,-128 z" /><glyph
         glyph-name=""
         unicode="g"
         id="glyph2575"
         d="m 384,680 c 0,0 -192,-1.9e-4 -192,-192 0,-191.99981 192,-192 192,-192 h 320 v -64 c 0,-64 -64,-64 -64,-64 H 320 V 40 h 320 c 0,0 192,1.9e-4 192,192 v 192 c 0,96 0,160 0,256 z m 0,-128 h 320 c 0,-32 0,-75.86516 0,-128 H 384 c 0,0 -64,0 -64,64 0,64 64,64 64,64 z" /><glyph
         glyph-name=""
         unicode="h"
         id="glyph2577"
         d="M 192,936 H 320 V 680 h 256 c 0,0 256,0 256,-256 V 40 H 704 v 384 c 0,0 0,128 -128,128 H 320 V 40 H 192 Z" /><glyph
         glyph-name=""
         unicode="i"
         id="glyph2579"
         d="M 448,936 V 808 H 576 V 936 Z M 320,680 V 552 H 448 V 168 H 320 V 40 h 416 v 128 c -58.66667,0 -63.99007,0 -160,0 v 384 h 128 v 128 z" /><glyph
         glyph-name=""
         unicode="j"
         id="glyph2581"
         d="M 704,936 V 808 H 832 V 936 Z M 448,680 V 552 H 704 V 360 C 704,168 512,168 512,168 H 192 V 40 h 320 c 320,0 320,320 320,320 v 320 c -128,0 -274.34575,0 -384,0 z" /><glyph
         glyph-name=""
         unicode="k"
         id="glyph2583"
         d="M 192,936 H 320 V 424 h 160 l 256,256 h 96 V 616 L 576,360 832,104 V 40 H 736 L 480,296 H 320 V 40 H 192 Z" /><glyph
         glyph-name=""
         unicode="l"
         id="glyph2585"
         d="M 192,808 H 320 V 360 c 0,0 0,-320 320,-320 H 832 V 168 H 640 c 0,0 -192,0 -192,192 V 936 H 192 Z" /><glyph
         glyph-name=""
         unicode="m"
         id="glyph2587"
         d="M 192,680 H 320 L 512,456 704,680 H 832 V 40 H 704 V 520 L 512,296 320,520 V 40 H 192 Z" /><glyph
         glyph-name=""
         unicode="n"
         id="glyph2589"
         d="M 320,40 H 192 v 640 h 320 c 0,0 320,0 320,-320 V 40 H 704 v 320 c 0,0 0,192 -192,192 H 320 Z" /><glyph
         glyph-name=""
         unicode="o"
         id="glyph2591"
         d="m 512,680 c 0,0 -320,0 -320,-320 0,-320 320,-320 320,-320 0,0 320,0 320,320 0,320 -320,320 -320,320 z m 0,-128 c 0,0 192,0 192,-192 0,-192 -192,-192 -192,-192 0,0 -192,0 -192,192 0,192 192,192 192,192 z" /><glyph
         glyph-name=""
         unicode="p"
         id="glyph2593"
         d="m 640,680 c 0,0 192,-1.9e-4 192,-192 C 832,296.00019 640,296 640,296 H 320 V 40 H 192 c 0,213.33333 0,426.66667 0,640 z m 0,-128 H 320 c 0,-64 0,-64 0,-128 h 320 c 0,0 64,0 64,64 0,64 -64,64 -64,64 z" /><glyph
         glyph-name=""
         unicode="q"
         id="glyph2595"
         d="M 384,680 C 190.50581,680 192,488 192,488 c 0,0 2.2e-4,-192 224,-192 117.18334,1.60742 288,0 288,0 V 40 h 128 v 448 c 0,192.48917 -192,192 -192,192 z m 0,-128 h 256 c 64,0 64,-64 64,-64 v -64 c 0,0 -47.04268,0 -64,0 H 384 c 0,0 -64,0 -64,64 0,64 64,64 64,64 z" /><glyph
         glyph-name=""
         unicode="r"
         id="glyph2597"
         d="m 832,424 c 0,0 0,256 -256,256 H 448 c 0,0 -256,0 -256,-256 V 40 h 128 v 384 c 0,0 0,128 128,128 h 128 c 0,0 128,-16 128,-128 z" /><glyph
         glyph-name=""
         unicode="s"
         id="glyph2599"
         d="m 320,40 h 320 c 0,0 192,0 192,192 0,192 -160,192 -160,192 H 384 c 0,0 -64,0 -64,64 0,64 64,64 64,64 H 704 V 680 H 384 c 0,0 -192,0 -192,-192 0,-192 192,-192 192,-192 h 256 c 0,0 64,0 64,-64 0,-64 -64,-64 -64,-64 H 320 Z" /><glyph
         glyph-name=""
         unicode="t"
         id="glyph2601"
         d="M 320,936 V 680 H 192 V 552 H 320 V 360 c 0,0 0,-320 320,-320 H 832 V 168 H 640 c 0,0 -192,0 -192,192 V 552 H 576 V 680 H 448 v 256 z" /><glyph
         glyph-name=""
         unicode="u"
         id="glyph2603"
         d="M 320,680 H 192 V 360 c 0,0 0,-320 320,-320 H 832 V 680 H 704 V 168 H 512 c 0,0 -192,0 -192,192 z" /><glyph
         glyph-name=""
         unicode="v"
         id="glyph2605"
         d="M 192,680 V 648 L 416,40 h 192 l 224,608 v 32 H 704 L 512,168 320,680 Z" /><glyph
         glyph-name=""
         unicode="w"
         id="glyph2607"
         d="M 192,680 V 40 H 320 L 512,232 704,40 H 832 V 680 H 704 V 200 L 512,392 320,200 v 480 z" /><glyph
         glyph-name=""
         unicode="x"
         id="glyph2609"
         d="M 192,680 V 584 L 416,360 192,136 V 40 h 96 L 512,264 736,40 h 96 v 96 L 608,360 832,584 v 96 H 736 L 512,456 288,680 Z" /><glyph
         glyph-name=""
         unicode="y"
         id="glyph2611"
         d="M 192,680 V 552 c 0,0 0,-256 256,-256 H 704 C 704,168 576,168 576,168 H 320 V 40 h 256 c 128,0 256,128 256,256 0,128 0,256 0,384 H 704 V 424 H 448 c 0,0 -128,1.3e-4 -128,128 v 128 z" /><glyph
         glyph-name=""
         unicode="z"
         id="glyph2613"
         d="M 192,680 H 832 V 552 L 384,168 H 832 V 40 H 192 V 168 L 640,552 H 192 Z" /><glyph
         glyph-name=""
         unicode="{"
         id="glyph2615"
         d="M 704,936 H 576 L 448,808 V 552 l -64,-64 64,-64 V 168 L 576,40 h 128 v 128 h -96 l -32,32 v 224 l -64,64 64,64 v 224 l 32,32 h 96 z" /><glyph
         glyph-name=""
         unicode="|"
         id="glyph2617"
         d="M 448,936 H 576 V 40 H 448 Z" /><glyph
         glyph-name=""
         unicode="}"
         id="glyph2619"
         d="M 320,936 H 448 L 576,808 V 552 l 64,-64 -64,-64 V 168 L 448,40 H 320 v 128 h 96 l 32,32 v 224 l 64,64 -64,64 v 224 l -32,32 h -96 z" /><glyph
         glyph-name=""
         unicode="~"
         id="glyph2621"
         d="M 320,680 C 64,680 64,424 64,424 h 128 c 0,0 0,128 128,128 128,0 256,-128 384,-128 256,0 256,256 256,256 H 832 c 0,0 0,-128 -128,-128 -128,0 -256,128 -384,128 z" /><glyph
         glyph-name=""
         unicode=" "
         id="glyph2623" /><glyph
         glyph-name=""
         unicode="¡"
         id="glyph2625" /><glyph
         glyph-name=""
         unicode="¢"
         id="glyph2627" /><glyph
         glyph-name=""
         unicode="£"
         id="glyph2629" /><glyph
         glyph-name=""
         unicode="."
         id="glyph1890"
         d="M 448,168 V 296 H 576 V 168 Z" /><glyph
         glyph-name=""
         unicode=","
         id="glyph1897"
         d="M 448,40 V 296 H 576 V 168 Z" /><glyph
         glyph-name=""
         unicode="-"
         id="glyph1921"
         d="M 192,552 V 424 h 640 v 128 z" /><glyph
         glyph-name=""
         unicode="*"
         id="glyph29054"
         d="M 192,552 V 424 h 256 v 0 l -128,-128 96,-96 96,96 96,-96 96,96 -128,128 H 832 V 552 H 576 l 128,128 -96,96 -96,-96 -96,96 -96,-96 128,-128 z" /><glyph
         glyph-name=""
         unicode="+"
         id="glyph29056"
         d="M 448,808 H 576 V 552 H 832 V 424 H 576 V 168 H 448 V 424 H 192 v 128 h 256 z" /><glyph
         glyph-name=""
         unicode="#"
         id="glyph29063"
         d="M 320,936 V 680 H 64 V 552 H 320 V 424 H 64 V 296 H 320 V 40 H 448 V 296 H 576 V 40 H 704 V 296 H 960 V 424 H 704 V 552 H 960 V 680 H 704 V 936 H 576 V 680 H 448 V 936 Z M 448,552 H 576 V 424 H 448 Z" /><glyph
         glyph-name=""
         unicode="$"
         id="glyph29070"
         d="M 960,808 H 576 V 936 H 448 V 808 H 64 V 424 H 832 V 296 H 64 V 168 H 448 V 40 H 576 V 168 H 960 V 552 H 192 v 128 h 768 z" /><glyph
         glyph-name=""
         unicode="%"
         id="glyph29448"
         d="M 864,936 64,136 V 40 h 96 l 800,800 v 96 z M 192,808 V 680 H 320 V 808 Z M 704,296 V 168 h 128 v 128 z" /><glyph
         glyph-name=""
         unicode="&amp;"
         id="glyph29450" /><glyph
         glyph-name=""
         unicode="'"
         id="glyph29452"
         d="M 448,936 H 576 V 680 H 448 Z" /><glyph
         glyph-name=""
         unicode="("
         id="glyph29454"
         d="m 704,936 c 0,0 -256,0 -256,-384 V 424 c 0,0 0,-384 256,-384 v 128 c 0,0 -128,0 -128,256 v 128 c 0,0 0,256 128,256 z" /><glyph
         glyph-name=""
         unicode=")"
         id="glyph29456"
         d="m 320,936 c 0,0 256,0 256,-384 V 424 c 0,0 0,-384 -256,-384 v 128 c 0,0 128,0 128,256 v 128 c 0,0 0,256 -128,256 z" /><glyph
         glyph-name=""
         unicode="*"
         id="glyph29458" /></font>
</defs>
</svg>
